PathFileType	4	(X/Y/Z)	C:/Users/beibeiliu/ov580/test_trc/User3\sequence.16_training_dense_left.trc
DataRate	CameraRate	NumFrames	NumMarkers	Units	OrigDataRate	OrigDataStartFrame	OrigNumFrames
120	120	11	19	mm	120	1	266
Frame#	Time	ThumbCMC			ThumbMCP			ThumbIP			ThumbTip			IndexMCP			IndexPIP			IndexTip			MiddleMCP			MiddlePIP			MiddleTip			RingMCP			RingPIP			RingTip			PinkyMCP			PinkyPIP			PinkyTip			BackHand1			BackHand2			BackHand3	
		X0	Y0	Z0	X1	Y1	Z1	X2	Y2	Z2	X3	Y3	Z3	X4	Y4	Z4	X5	Y5	Z5	X6	Y6	Z6	X7	Y7	Z7	X8	Y8	Z8	X9	Y9	Z9	X10	Y10	Z10	X11	Y11	Z11	X12	Y12	Z12	X13	Y13	Z13	X14	Y14	Z14	X15	Y15	Z15	X16	Y16	Z16	X17	Y17	Z17	X18	Y18	Z18	
0	0	-147.286	-39.3524	21.3185	-131.764	-50.7909	-2.67352	-116.34	-58.9732	-28.5019	-112.953	-69.5501	-53.7848	-165.045	-26.7281	-55.8436	-157.57	-34.1401	-83.2779	-152.524	-54.9029	-108.661	-186.412	-27.2954	-63.1884	-185.094	-36.7955	-92.9026	-182.429	-62.0057	-116.803	-203.391	-35.0369	-57.9426	-204.965	-42.1849	-81.2094	-204.782	-62.03	-103.265	-224.099	-45.5209	-43.0931	-224.832	-52.8257	-62.3159	-219.844	-66.4691	-84.5348	-208.091	-20.6242	-6.53394	-210.684	-19.9906	28.368	-177.37	-15.4173	9.76708	
1	0.00833333	-150.326	-39.9066	18.936	-132.127	-49.9151	-3.92922	-123.015	-59.2622	-28.8641	-114.756	-70.228	-52.6726	-166.539	-26.7042	-57.5989	-159.876	-35.7222	-87.4135	-155.097	-56.4316	-108.809	-186.705	-27.2466	-66.0845	-185.048	-35.4701	-91.1658	-183.138	-62.8155	-116.68	-209.071	-35.3153	-56.817	-204.815	-43.3957	-81.7595	-204.198	-66.1579	-107.258	-223.272	-45.8629	-39.7424	-225.446	-55.6277	-67.7085	-224.303	-66.8897	-85.1975	-211.662	-22.1678	-3.34994	-211.392	-18.9092	25.1539	-177.898	-16.2033	7.74302	
2	0.0166667	-151.095	-40.6109	20.2116	-134.308	-50.2911	-1.77199	-119.955	-60.0904	-32.3855	-116.374	-69.7026	-48.7168	-161.783	-26.877	-61.591	-160.348	-35.28	-85.872	-151.486	-53.6208	-106.392	-189.492	-27.2165	-63.6258	-185.337	-37.1641	-92.6536	-180.036	-62.1051	-116.055	-204.549	-34.7088	-55.3505	-205.111	-46.51	-86.1174	-205.325	-67.004	-106.423	-225.176	-45.3718	-42.3371	-226.489	-55.899	-66.39	-222.558	-69.6162	-84.3548	-212.939	-21.6872	-4.68129	-211.184	-20.6831	24.1365	-180.072	-16.8737	9.87391	
3	0.025	-147.831	-39.4427	15.0558	-134.978	-50.1318	-5.46146	-121.422	-59.5674	-30.9207	-114.855	-69.5645	-48.0883	-164.663	-27.1588	-61.5664	-156.088	-36.0459	-89.5036	-157.025	-53.4786	-106.166	-187.026	-27.1137	-62.8559	-185.137	-38.6462	-94.9788	-182.129	-63.6946	-116.567	-204.108	-34.6766	-58.5828	-206.056	-45.8721	-85.6279	-203.747	-62.8725	-103.886	-220.854	-45.3671	-40.8083	-222.446	-53.3111	-66.7079	-222.911	-68.2	-86.2814	-211.033	-22.4085	-8.11406	-215.023	-20.7501	22.4537	-178.655	-16.0449	6.33085	
4	0.0333333	-152.303	-40.1782	18.476	-133.64	-49.7809	-7.37322	-118.58	-59.3885	-29.7596	-112.66	-69.6981	-50.5765	-162.118	-25.7674	-58.4713	-158.035	-33.328	-85.5502	-152.24	-51.9267	-106.792	-184.644	-26.3434	-68.7131	-181.811	-40.2632	-96.6005	-179.091	-62.0825	-116.141	-208.442	-36.5947	-58.0925	-204.174	-46.367	-87.2067	-204.024	-67.4348	-106.487	-225.625	-46.5992	-44.1959	-221.174	-53.2836	-65.3258	-222.003	-69.2038	-86.5404	-212.16	-21.0742	-7.68353	-209.658	-19.3647	20.8721	-179.49	-16.9721	6.07475	
5	0.0416667	-151.63	-39.6324	14.74	-134.668	-49.1636	-6.30198	-121.601	-58.5111	-33.3946	-113.169	-69.418	-51.9534	-161.253	-25.5938	-56.9735	-160.626	-35.986	-88.316	-152.993	-51.7332	-106.237	-188.385	-27.7175	-67.3446	-182.641	-37.8145	-94.354	-181.677	-63.0831	-116.159	-208.549	-36.4212	-58.0541	-206.551	-46.9598	-86.5277	-205.265	-64.9915	-104.503	-223.187	-45.0695	-43.4703	-221.556	-52.3578	-63.7308	-221.446	-70.2491	-84.5433	-208.794	-20.9278	-3.89327	-211.971	-20.7208	23.1561	-176.263	-16.3988	7.8859	
6	0.05	-149.284	-38.9241	15.7239	-132.254	-49.2107	-6.75019	-122.92	-59.7987	-28.7475	-116.383	-68.6832	-50.4658	-165.219	-25.8578	-61.3876	-157.263	-32.8965	-84.235	-155.169	-51.3998	-105.871	-189.084	-27.1819	-67.4186	-182.395	-35.6857	-92.0267	-179.131	-62.5612	-117.907	-203.666	-34.9256	-55.3851	-204.96	-44.8944	-83.7455	-200.144	-65.7129	-107.534	-224.952	-46.0998	-44.0945	-221.995	-55.932	-68.701	-220.016	-70.6052	-86.1447	-207.504	-22.8308	-3.26426	-213.648	-21.0919	25.1493	-179.892	-15.1722	9.74263	
7	0.0583333	-150.015	-38.1506	20.5396	-133.051	-48.8528	-3.61595	-119.197	-57.4105	-32.606	-113.449	-67.9256	-51.3293	-164.309	-23.6793	-60.0693	-156.336	-34.119	-88.3134	-155.614	-50.7037	-106.06	-187.032	-26.2848	-67.203	-182.779	-35.9054	-92.6743	-174.249	-63.7622	-118.861	-203.254	-34.1261	-57.0303	-206.587	-45.7072	-84.4591	-202.003	-64.905	-104.268	-224.085	-45.5887	-47.2233	-221.354	-54.5876	-65.9333	-217.41	-73.0837	-87.9847	-213.316	-23.0171	-3.66291	-214.083	-21.2223	23.0047	-177.671	-13.3449	8.96081	
8	0.0666667	-150.373	-38.6308	17.7489	-134.142	-48.4952	-6.38491	-123.553	-57.1184	-30.8363	-117.514	-67.0716	-55.0492	-163.696	-22.4681	-57.4867	-156.988	-33.0977	-88.9553	-149.033	-53.6965	-107.639	-185.944	-24.6541	-63.9003	-183.837	-37.672	-95.7166	-175.425	-62.1361	-116.582	-204.362	-34.093	-59.2445	-204.755	-45.5245	-84.5643	-196.145	-67.808	-104.9	-224.309	-45.7306	-43.4306	-220.609	-54.4537	-65.6629	-217.269	-73.1199	-86.7337	-210.421	-22.6028	-5.53963	-214.836	-22.2698	25.7403	-179.29	-15.676	10.0719	
9	0.075	-153.082	-37.783	19.695	-130.755	-46.9752	-5.45706	-119.055	-54.8782	-29.1416	-119.661	-65.4458	-51.2253	-162.175	-20.7196	-58.1763	-159.178	-28.9992	-84.4948	-152.027	-49.8199	-105.737	-183.593	-22.6183	-66.0048	-178.418	-34.2999	-93.8203	-172.291	-61.8039	-113.338	-200.085	-31.8514	-60.3695	-203.934	-44.5456	-83.9421	-194.704	-69.8255	-100.912	-219.012	-43.7381	-42.8188	-218.633	-56.3769	-68.7809	-211.437	-74.7633	-83.7786	-213.452	-21.3781	-5.07865	-215.124	-20.5676	21.6934	-178.959	-13.8362	11.5222	
10	0.0833333	-152.095	-34.7529	18.6329	-134.203	-44.3081	-4.53972	-122.483	-52.453	-31.1794	-118.676	-61.7218	-54.6168	-165.11	-19.0516	-58.1942	-156.504	-27.3379	-83.9886	-151.567	-50.9118	-104.195	-184.408	-21.292	-67.079	-177.775	-34.0215	-91.606	-172.758	-64.8878	-108.349	-205.52	-32.7541	-58.7844	-200.691	-45.8598	-83.6618	-188.795	-75.1006	-95.6386	-218.065	-42.9258	-43.7577	-214.792	-56.2985	-69.0532	-204.925	-78.6847	-78.2768	-214.388	-20.4608	-4.43471	-215.721	-21.2817	21.0546	-182.748	-11.7304	11.3483	
